<?xml version="1.0" encoding="utf-8"?>
<!-- Generator: Adobe Illustrator 24.1.3, SVG Export Plug-In . SVG Version: 6.00 Build 0)  -->
<svg version="1.1" id="Layer_1" xmlns="http://www.w3.org/2000/svg" xmlns:xlink="http://www.w3.org/1999/xlink" x="0px" y="0px"
	 viewBox="0 0 327 137" style="enable-background:new 0 0 327 137;" xml:space="preserve">
<style type="text/css">
	.st0{fill:#003D6E;}
	.st1{font-family:'CircularStd-Bold';}
	.st2{font-size:68.8349px;}
	.st3{fill:#014476;}
	.st4{fill:#43D58E;}
</style>
<text transform="matrix(1 0 0 1 85.9536 85.373)" class="st0 st1 st2">meddit</text>
<polygon class="st3" points="32.68,37.47 32.68,60.69 8.45,60.69 8.45,53.11 25.11,53.11 25.11,37.47 "/>
<polygon class="st4" points="32.68,73.52 32.68,96.74 25.11,96.74 25.11,85.18 10.74,99.55 5.38,94.2 18.5,81.09 8.45,81.09 
	8.45,73.52 "/>
<polygon class="st3" points="69.75,53.11 69.75,60.69 45.52,60.69 45.52,37.47 53.1,37.47 53.1,53.11 "/>
<polygon class="st3" points="69.75,73.52 69.75,81.09 53.1,81.09 53.1,96.74 45.52,96.74 45.52,73.52 "/>
</svg>
