<svg id="Layer_1" data-name="Layer 1" xmlns="http://www.w3.org/2000/svg" viewBox="0 0 308.62 76.17"><defs><style>.cls-1{font-size:68.83px;fill:#003d6e;font-family:CircularStd-Bold, Circular Std;font-weight:700;}.cls-2{fill:#014476;}.cls-3{fill:#43d58e;}</style></defs><text class="cls-1" transform="translate(80.57 58.82)">meddit</text><polygon class="cls-2" points="27.3 10.91 27.3 34.13 3.07 34.13 3.07 26.55 19.73 26.55 19.73 10.91 27.3 10.91"/><polygon class="cls-3" points="27.3 46.97 27.3 70.19 19.73 70.19 19.73 58.63 5.36 73 0 67.64 13.12 54.53 3.07 54.53 3.07 46.97 27.3 46.97"/><polygon class="cls-2" points="64.36 26.55 64.36 34.13 40.13 34.13 40.13 10.91 47.71 10.91 47.71 26.55 64.36 26.55"/><polygon class="cls-2" points="64.36 46.97 64.36 54.53 47.71 54.53 47.71 70.19 40.13 70.19 40.13 46.97 64.36 46.97"/></svg>